<svg width="50" height="50" viewBox="0 0 50 50" fill="none" xmlns="http://www.w3.org/2000/svg">
<g clip-path="url(#clip0_401_2553)">
<path d="M25 50C38.8071 50 50 38.8071 50 25C50 11.1929 38.8071 0 25 0C11.1929 0 0 11.1929 0 25C0 38.8071 11.1929 50 25 50Z" fill="#3C5A9A"/>
<path d="M33.1289 7.67371H27.5907C24.3042 7.67371 20.6487 9.05596 20.6487 13.8199C20.6648 15.4798 20.6487 17.0695 20.6487 18.8587H16.8467V24.9088H20.7664V42.3263H27.969V24.7939H32.723L33.1531 18.8417H27.8449C27.8449 18.8417 27.8568 16.1939 27.8449 15.425C27.8449 13.5424 29.8038 13.6502 29.9216 13.6502C30.8538 13.6502 32.6663 13.6529 33.1316 13.6502V7.67371H33.1289Z" fill="white"/>
</g>
<defs>
<clipPath id="clip0_401_2553">
<rect width="50" height="50" fill="white"/>
</clipPath>
</defs>
</svg>
